<?xml version="1.0" standalone="no"?>
<!DOCTYPE svg PUBLIC "-//W3C//DTD SVG 20010904//EN"
 "http://www.w3.org/TR/2001/REC-SVG-20010904/DTD/svg10.dtd">
<svg version="1.0" xmlns="http://www.w3.org/2000/svg"
 width="2011.000000pt" height="2400.000000pt" viewBox="0 0 2011.000000 2400.000000"
 preserveAspectRatio="xMidYMid meet">

<g transform="translate(0.000000,2400.000000) scale(0.100000,-0.100000)"
fill="rgba(0,0,0,0)" stroke="black" stroke-width='100' >
<path d="M9966 23975 c-69 -28 -152 -82 -212 -137 -48 -44 -161 -213 -229
-340 -228 -432 -506 -1518 -604 -2363 -51 -439 -69 -797 -81 -1645 -15 -994 8
-3945 36 -4741 7 -209 3 -243 -52 -374 -29 -67 -34 -91 -34 -158 0 -49 -5 -89
-15 -106 -15 -30 -120 -131 -136 -131 -16 0 -31 53 -24 89 4 19 18 57 32 85
33 66 40 144 19 226 -9 36 -21 69 -25 73 -5 5 -24 -20 -42 -55 -58 -110 -294
-329 -626 -581 -79 -60 -247 -200 -375 -313 -128 -112 -239 -204 -247 -204
-11 0 -12 11 -8 53 39 322 39 328 34 742 -5 440 -10 490 -58 541 -37 40 -108
54 -324 65 -355 20 -592 1 -690 -54 -70 -39 -87 -130 -106 -552 -19 -427 20
-987 75 -1068 19 -28 70 -70 97 -79 19 -6 68 -365 53 -389 -19 -31 -2126
-1701 -3464 -2744 -1074 -838 -1648 -1297 -2327 -1863 l-282 -235 6 -44 c6
-43 4 -46 -37 -82 -39 -33 -44 -43 -51 -98 -7 -52 -20 -79 -91 -189 -107 -167
-178 -306 -178 -347 0 -45 25 -77 59 -77 l27 0 -14 -88 c-14 -96 -11 -259 9
-429 l12 -101 27 41 c27 42 89 102 97 93 2 -2 7 -26 11 -53 l7 -48 48 -3 47
-3 0 91 0 91 47 21 c27 12 244 110 483 218 1099 498 1513 686 1885 855 l400
181 7 74 c4 40 10 75 13 78 3 3 5 -54 5 -126 0 -99 3 -132 12 -132 17 0 6 -5
1413 621 1571 698 1767 786 1777 801 4 7 8 43 8 81 0 50 3 67 14 67 7 0 179
25 382 55 203 30 377 55 387 55 14 0 17 -9 17 -51 l0 -51 33 6 c17 3 201 28
407 55 901 121 1264 161 1283 142 8 -8 10 -198 6 -688 -8 -1291 0 -1942 32
-2398 55 -813 142 -1494 251 -1980 63 -279 56 -339 -46 -433 -44 -41 -993
-753 -1987 -1491 -539 -401 -578 -432 -613 -503 l-26 -52 0 -433 c0 -238 4
-433 8 -433 5 0 332 79 728 176 763 186 1752 427 2047 498 97 24 179 41 181
37 2 -3 7 -44 11 -91 18 -220 46 -270 150 -270 21 0 35 -5 35 -12 0 -32 52
-453 65 -533 14 -80 19 -93 48 -120 19 -16 41 -34 50 -40 12 -7 28 -57 53
-165 68 -293 131 -486 159 -484 29 2 91 192 159 484 24 107 41 158 52 165 58
34 82 66 93 122 11 58 53 387 66 516 l7 67 32 0 c51 0 95 20 111 49 15 30 45
215 45 280 0 36 3 42 18 37 9 -3 350 -86 757 -185 407 -99 1064 -259 1461
-355 396 -97 724 -176 728 -176 4 0 5 201 4 448 l-3 447 -33 47 c-44 64 -89
99 -767 603 -1062 789 -1776 1326 -1822 1368 -99 91 -107 157 -50 407 107 469
193 1120 247 1870 41 579 50 1109 41 2543 -3 470 -1 671 6 678 13 13 123 4
473 -37 216 -25 1157 -149 1218 -160 l32 -6 0 51 c0 44 3 51 20 51 11 0 185
-25 387 -55 202 -30 374 -55 380 -55 9 0 13 -20 13 -67 0 -38 4 -73 8 -80 8
-13 211 -105 1412 -640 1219 -543 1763 -783 1777 -783 10 0 13 30 13 132 0 72
2 129 5 126 3 -3 9 -38 13 -78 l7 -74 1405 -637 1405 -636 3 -92 3 -92 47 3
47 3 7 48 c4 27 9 51 11 53 8 9 70 -51 97 -93 l27 -42 12 112 c21 185 23 324
9 419 l-14 88 27 0 c35 0 59 33 59 80 0 43 -63 163 -178 344 -71 110 -84 137
-91 189 -7 55 -13 65 -51 99 -41 36 -42 40 -37 81 l6 43 -147 124 c-587 496
-1347 1106 -2442 1960 -1163 907 -2050 1608 -3118 2463 l-373 298 6 67 c9 93
24 207 36 269 7 37 16 54 30 58 28 9 78 53 93 84 42 82 83 619 72 951 -12 346
-33 554 -62 612 -18 34 -72 63 -161 85 -58 15 -114 18 -368 17 -165 -1 -336
-7 -380 -13 -159 -23 -189 -59 -205 -247 -15 -188 -13 -757 5 -904 8 -69 17
-151 21 -182 5 -46 4 -58 -7 -58 -8 0 -88 66 -179 147 -219 194 -365 314 -481
400 -261 192 -536 449 -585 547 -16 32 -33 58 -39 57 -16 -3 -36 -70 -42 -141
-5 -57 -2 -75 22 -130 40 -97 51 -145 37 -175 -6 -14 -16 -25 -21 -25 -13 0
-119 98 -134 124 -6 11 -15 64 -18 116 -5 79 -13 111 -45 190 l-39 95 2 190
c1 105 6 420 12 700 20 934 32 3365 21 4100 -13 857 -30 1209 -80 1640 -85
720 -307 1659 -511 2158 -90 220 -240 470 -329 550 -90 82 -233 157 -298 157
-15 0 -53 -11 -86 -25z m-3427 -11698 c-9 -7 -96 -74 -195 -150 -169 -130
-199 -149 -199 -128 0 17 390 309 400 299 7 -6 5 -13 -6 -21z m7376 -230 c47
-37 59 -54 44 -59 -5 -2 -351 256 -393 293 -4 4 -5 12 -1 18 6 10 135 -83 350
-252z m-7791 -76 c5 -8 -95 -91 -109 -91 -18 0 5 33 45 64 48 38 56 41 64 27z
m7927 -28 c42 -31 63 -63 44 -63 -15 0 -114 83 -109 91 8 14 13 12 65 -28z
m-8061 -76 c0 -13 -464 -372 -481 -372 -5 0 -9 4 -10 9 -1 9 470 374 484 375
4 1 7 -5 7 -12z m8390 -176 c154 -118 237 -188 231 -194 -11 -11 -490 351
-491 371 0 8 4 12 10 10 5 -1 118 -86 250 -187z m-8911 -234 c-8 -7 -99 -76
-202 -155 -102 -79 -190 -143 -194 -143 -25 2 11 35 192 175 131 101 203 151
210 144 7 -6 5 -13 -6 -21z m9504 -221 c75 -58 83 -67 71 -78 -3 -4 -94 61
-202 144 -234 179 -216 164 -207 177 6 11 47 -19 338 -243z m-9934 -101 c-7
-21 -402 -316 -411 -307 -6 6 65 67 194 166 186 143 225 168 217 141z m10255
-145 c108 -83 194 -156 190 -161 -7 -13 -7 -13 -227 156 -107 83 -193 154
-190 158 8 14 24 3 227 -153z m-10690 -198 c-6 -4 -102 -77 -214 -162 -111
-85 -205 -154 -209 -152 -18 7 12 33 204 180 140 108 213 158 220 151 7 -7 6
-12 -1 -17z m11131 -140 c182 -140 216 -170 192 -173 -5 0 -101 70 -215 157
-114 87 -209 159 -211 160 -1 1 0 8 4 13 8 14 -3 22 230 -157z m-11583 -196
c0 -5 -96 -82 -213 -172 -143 -110 -216 -161 -223 -154 -7 7 -4 15 9 24 11 8
108 82 215 164 107 83 199 150 203 149 5 -2 9 -6 9 -11z m12029 -146 c111 -85
207 -158 213 -162 7 -5 7 -11 1 -17 -12 -12 -448 317 -439 331 3 5 10 8 14 6
5 -2 100 -73 211 -158z m-12481 -199 c0 -9 -407 -327 -426 -333 -5 -2 -11 1
-13 6 -4 11 407 334 427 335 6 1 12 -3 12 -8z m12928 -142 c222 -171 238 -184
224 -193 -12 -7 -444 323 -436 335 3 5 7 9 10 9 2 0 93 -68 202 -151z m-13389
-222 c-2 -2 -100 -77 -217 -167 -136 -104 -217 -159 -223 -153 -6 6 69 70 208
176 136 104 221 163 227 157 5 -5 8 -11 5 -13z m13875 -151 c132 -102 203
-163 197 -169 -6 -6 -72 39 -183 123 -243 187 -259 200 -252 211 7 12 1 16
238 -165z m-14336 -191 c-4 -20 -408 -326 -420 -319 -6 4 -6 10 2 18 23 23
405 315 413 316 5 0 7 -7 5 -15z m14951 -283 c20 -17 30 -31 24 -35 -7 -5
-354 249 -422 309 -1 1 0 7 4 13 5 9 273 -185 394 -287z m-15391 -54 c-5 -15
-395 -318 -409 -318 -5 0 -9 4 -9 9 0 11 399 321 413 321 5 0 7 -6 5 -12z
m15647 -140 c177 -137 236 -190 194 -176 -8 3 -103 72 -211 154 -173 131 -220
174 -190 174 5 0 98 -69 207 -152z m-16085 -198 c0 -17 -444 -350 -454 -340
-5 5 -8 11 -5 13 60 50 444 337 450 337 5 0 9 -4 9 -10z m16548 -156 c119 -92
219 -168 221 -170 3 -3 0 -9 -5 -14 -9 -9 -445 317 -452 339 -9 28 32 0 236
-155z m-17018 -203 c0 -11 -335 -271 -350 -271 -27 0 3 28 161 149 165 126
189 142 189 122z m17440 -122 c155 -119 187 -149 161 -149 -14 0 -351 260
-351 271 0 21 29 3 190 -122z m-17817 -166 c8 -13 -344 -276 -354 -266 -6 6
54 58 163 141 95 73 176 132 180 132 4 0 9 -3 11 -7z m18203 -129 c103 -79
161 -131 156 -136 -6 -6 -76 41 -185 125 -97 74 -173 138 -169 141 11 11 28 0
198 -130z m-18581 -172 c-68 -59 -178 -133 -186 -125 -13 13 172 155 186 142
6 -6 6 -12 0 -17z m18873 -52 c51 -39 79 -67 73 -73 -6 -6 -41 15 -92 54 -46
35 -87 67 -92 70 -5 4 -6 12 -2 18 4 7 11 9 18 3 7 -5 49 -37 95 -72z"/>
</g>
</svg>
